<svg width="81" height="79" viewBox="0 0 81 79" fill="none" xmlns="http://www.w3.org/2000/svg">
<path d="M63.855 19.7829C63.18 17.8408 61.29 16.4583 59.0625 16.4583H21.9375C19.71 16.4583 17.8537 17.8408 17.145 19.7829L10.125 39.5V65.8333C10.125 67.6437 11.6437 69.125 13.5 69.125H16.875C18.7313 69.125 20.25 67.6437 20.25 65.8333V62.5416H60.75V65.8333C60.75 67.6437 62.2687 69.125 64.125 69.125H67.5C69.3563 69.125 70.875 67.6437 70.875 65.8333V39.5L63.855 19.7829ZM23.1187 23.0416H57.8475L61.4925 33.2787H19.4737L23.1187 23.0416ZM64.125 55.9583H16.875V39.5H64.125V55.9583Z" fill="#E5E5E5"/>
<path d="M25.3125 52.6667C28.1084 52.6667 30.375 50.4561 30.375 47.7292C30.375 45.0023 28.1084 42.7917 25.3125 42.7917C22.5166 42.7917 20.25 45.0023 20.25 47.7292C20.25 50.4561 22.5166 52.6667 25.3125 52.6667Z" fill="#E5E5E5"/>
<path d="M55.6875 52.6667C58.4834 52.6667 60.75 50.4561 60.75 47.7292C60.75 45.0023 58.4834 42.7917 55.6875 42.7917C52.8916 42.7917 50.625 45.0023 50.625 47.7292C50.625 50.4561 52.8916 52.6667 55.6875 52.6667Z" fill="#E5E5E5"/>
</svg>
