<svg width="67" height="67" viewBox="0 0 67 67" fill="none" xmlns="http://www.w3.org/2000/svg">
<path d="M51.0879 15.9403C50.8296 15.6815 50.5228 15.4762 50.1851 15.3361C49.8474 15.196 49.4854 15.1239 49.1198 15.1239C48.7541 15.1239 48.3921 15.196 48.0544 15.3361C47.7167 15.4762 47.4099 15.6815 47.1516 15.9403L33.5004 29.5636L19.8491 15.9124C19.5907 15.6539 19.2838 15.4489 18.9461 15.309C18.6085 15.1692 18.2465 15.0972 17.881 15.0972C17.5155 15.0972 17.1536 15.1692 16.8159 15.309C16.4782 15.4489 16.1713 15.6539 15.9129 15.9124C15.6544 16.1708 15.4494 16.4777 15.3095 16.8154C15.1696 17.1531 15.0977 17.515 15.0977 17.8805C15.0977 18.246 15.1696 18.608 15.3095 18.9457C15.4494 19.2834 15.6544 19.5902 15.9129 19.8486L29.5641 33.4999L15.9129 47.1511C15.6544 47.4096 15.4494 47.7164 15.3095 48.0541C15.1696 48.3918 15.0977 48.7538 15.0977 49.1193C15.0977 49.4848 15.1696 49.8467 15.3095 50.1844C15.4494 50.5221 15.6544 50.8289 15.9129 51.0874C16.1713 51.3458 16.4782 51.5509 16.8159 51.6907C17.1536 51.8306 17.5155 51.9026 17.881 51.9026C18.2465 51.9026 18.6085 51.8306 18.9461 51.6907C19.2838 51.5509 19.5907 51.3458 19.8491 51.0874L33.5004 37.4361L47.1516 51.0874C47.4101 51.3458 47.7169 51.5509 48.0546 51.6907C48.3923 51.8306 48.7542 51.9026 49.1198 51.9026C49.4853 51.9026 49.8472 51.8306 50.1849 51.6907C50.5226 51.5509 50.8294 51.3458 51.0879 51.0874C51.3463 50.8289 51.5514 50.5221 51.6912 50.1844C51.8311 49.8467 51.9031 49.4848 51.9031 49.1193C51.9031 48.7538 51.8311 48.3918 51.6912 48.0541C51.5514 47.7164 51.3463 47.4096 51.0879 47.1511L37.4366 33.4999L51.0879 19.8486C52.1487 18.7878 52.1487 17.0011 51.0879 15.9403V15.9403Z" fill="#E5E5E5"/>
</svg>
