<svg width="25" height="24" viewBox="0 0 25 24" fill="none" xmlns="http://www.w3.org/2000/svg">
<path d="M12.4268 14.4C12.049 14.4 11.7325 14.2848 11.4774 14.0544C11.2214 13.8248 11.0934 13.54 11.0934 13.2C11.0934 12.86 11.2214 12.5748 11.4774 12.3444C11.7325 12.1148 12.049 12 12.4268 12C12.8045 12 13.1214 12.1148 13.3774 12.3444C13.6325 12.5748 13.7601 12.86 13.7601 13.2C13.7601 13.54 13.6325 13.8248 13.3774 14.0544C13.1214 14.2848 12.8045 14.4 12.4268 14.4ZM7.09342 14.4C6.71565 14.4 6.39876 14.2848 6.14276 14.0544C5.88765 13.8248 5.76009 13.54 5.76009 13.2C5.76009 12.86 5.88765 12.5748 6.14276 12.3444C6.39876 12.1148 6.71565 12 7.09342 12C7.4712 12 7.78809 12.1148 8.04409 12.3444C8.2992 12.5748 8.42676 12.86 8.42676 13.2C8.42676 13.54 8.2992 13.8248 8.04409 14.0544C7.78809 14.2848 7.4712 14.4 7.09342 14.4ZM17.7601 14.4C17.3823 14.4 17.0659 14.2848 16.8108 14.0544C16.5548 13.8248 16.4268 13.54 16.4268 13.2C16.4268 12.86 16.5548 12.5748 16.8108 12.3444C17.0659 12.1148 17.3823 12 17.7601 12C18.1379 12 18.4543 12.1148 18.7094 12.3444C18.9654 12.5748 19.0934 12.86 19.0934 13.2C19.0934 13.54 18.9654 13.8248 18.7094 14.0544C18.4543 14.2848 18.1379 14.4 17.7601 14.4ZM12.4268 19.2C12.049 19.2 11.7325 19.0848 11.4774 18.8544C11.2214 18.6248 11.0934 18.34 11.0934 18C11.0934 17.66 11.2214 17.3752 11.4774 17.1456C11.7325 16.9152 12.049 16.8 12.4268 16.8C12.8045 16.8 13.1214 16.9152 13.3774 17.1456C13.6325 17.3752 13.7601 17.66 13.7601 18C13.7601 18.34 13.6325 18.6248 13.3774 18.8544C13.1214 19.0848 12.8045 19.2 12.4268 19.2ZM7.09342 19.2C6.71565 19.2 6.39876 19.0848 6.14276 18.8544C5.88765 18.6248 5.76009 18.34 5.76009 18C5.76009 17.66 5.88765 17.3752 6.14276 17.1456C6.39876 16.9152 6.71565 16.8 7.09342 16.8C7.4712 16.8 7.78809 16.9152 8.04409 17.1456C8.2992 17.3752 8.42676 17.66 8.42676 18C8.42676 18.34 8.2992 18.6248 8.04409 18.8544C7.78809 19.0848 7.4712 19.2 7.09342 19.2ZM17.7601 19.2C17.3823 19.2 17.0659 19.0848 16.8108 18.8544C16.5548 18.6248 16.4268 18.34 16.4268 18C16.4268 17.66 16.5548 17.3752 16.8108 17.1456C17.0659 16.9152 17.3823 16.8 17.7601 16.8C18.1379 16.8 18.4543 16.9152 18.7094 17.1456C18.9654 17.3752 19.0934 17.66 19.0934 18C19.0934 18.34 18.9654 18.6248 18.7094 18.8544C18.4543 19.0848 18.1379 19.2 17.7601 19.2ZM3.09342 24C2.36009 24 1.73209 23.7652 1.20942 23.2956C0.687647 22.8252 0.426758 22.26 0.426758 21.6V4.8C0.426758 4.14 0.687647 3.5752 1.20942 3.1056C1.73209 2.6352 2.36009 2.4 3.09342 2.4H4.42676V1.2C4.42676 0.86 4.55431 0.5748 4.80942 0.3444C5.06542 0.1148 5.38231 0 5.76009 0C6.13787 0 6.45476 0.1148 6.71076 0.3444C6.96587 0.5748 7.09342 0.86 7.09342 1.2V2.4H17.7601V1.2C17.7601 0.86 17.8881 0.5748 18.1441 0.3444C18.3992 0.1148 18.7156 0 19.0934 0C19.4712 0 19.7876 0.1148 20.0428 0.3444C20.2988 0.5748 20.4268 0.86 20.4268 1.2V2.4H21.7601C22.4934 2.4 23.1214 2.6352 23.6441 3.1056C24.1659 3.5752 24.4268 4.14 24.4268 4.8V21.6C24.4268 22.26 24.1659 22.8252 23.6441 23.2956C23.1214 23.7652 22.4934 24 21.7601 24H3.09342ZM3.09342 21.6H21.7601V9.6H3.09342V21.6Z" fill="#0D0D0D"/>
</svg>
