<svg width="49" height="49" viewBox="0 0 49 49" fill="none" xmlns="http://www.w3.org/2000/svg">
<path d="M46.959 12.183C46.6011 11.3504 46.1388 10.6805 45.6182 10.0871C45.1684 10.3264 44.7176 10.5752 44.264 10.824C45.132 11.4939 46.09 12.0012 46.959 12.183V12.183ZM45.5684 4.61098C45.5588 4.08748 45.4871 3.54676 45.3205 2.98307C44.33 3.9401 43.6524 5.52303 43.4409 7.01982C44.0783 6.81789 44.7109 6.63031 45.3378 6.45805C45.4832 5.86086 45.577 5.24932 45.5684 4.61098V4.61098ZM45.466 8.23238C37.8701 10.3934 29.1802 14.9201 21.39 20.4805C13.0255 26.4619 5.69467 33.6396 1.72299 40.1475V47.0381C11.1976 31.2662 29.4386 16.6045 45.466 8.23238V8.23238ZM45.4086 14.5086C44.8372 13.2357 44.0573 12.2596 43.1787 11.427C42.6093 11.7523 42.0379 12.0777 41.4656 12.4127C42.6897 13.4367 44.1262 14.2502 45.4086 14.5086V14.5086ZM44.3606 18.0113C43.3376 15.8867 41.7805 14.4607 40.0913 13.2357C39.4482 13.6281 38.8079 14.0205 38.1572 14.432C39.8798 16.1355 42.2829 17.6094 44.3606 18.0113V18.0113ZM42.4274 4.58035C42.4274 3.88076 42.348 3.15725 42.1633 2.40119C41.0024 3.76113 40.2425 6.10107 40.1066 8.19219C40.7584 7.94145 41.4063 7.70506 42.0504 7.48207C42.2734 6.54801 42.4303 5.58906 42.4274 4.58035V4.58035ZM41.5202 21.2939C40.4866 18.6334 38.6165 16.9395 36.6833 15.3795C36.1665 15.7145 35.6497 16.059 35.1329 16.4035C36.6451 18.5473 39.2386 20.6432 41.5202 21.2939V21.2939ZM39.0376 23.9832C37.7552 20.9686 35.688 19.1406 33.5251 17.4945C32.9318 17.9061 32.3384 18.3271 31.7546 18.7482C33.5443 21.1695 36.5206 23.4377 39.0376 23.9832V23.9832ZM38.8749 5.9001C38.8654 4.59854 38.6644 3.27209 38.138 1.91406C36.8939 3.8999 36.3388 7.0782 36.5781 9.66602C37.2767 9.35211 37.9658 9.05352 38.6548 8.76832C38.7792 7.90699 38.8654 7.03897 38.8749 6.16041V5.9001ZM35.6689 26.7586C34.3386 23.6291 32.1566 21.782 29.9076 20.0881C29.3525 20.4996 28.7974 20.9207 28.2519 21.3418C30.0128 23.8396 33.0849 26.1939 35.6689 26.7586ZM35.3531 9.0248C35.3435 6.94518 35.1138 4.86459 33.9749 2.84717C32.9988 5.10289 32.9892 8.5549 33.7548 10.9963C34.2812 10.7379 34.8171 10.4795 35.3435 10.2307C35.3531 9.97227 35.3531 9.7043 35.3531 9.44111V9.0248ZM33.0849 29.9934C31.5728 26.5959 29.1706 24.4713 26.6441 22.5955C25.9072 23.1697 25.1703 23.7631 24.4429 24.366C26.7206 27.017 30.1468 29.3904 33.0849 29.9934ZM31.5345 11.3791C31.5441 8.81043 31.3144 6.20348 29.8214 3.49125C28.5964 6.00633 28.6443 10.1828 29.6683 13.1688C30.2904 12.8146 30.9029 12.4797 31.5249 12.1447C31.5345 11.8863 31.5345 11.6375 31.5345 11.3791V11.3791ZM29.8788 33.9938C28.1849 30.2039 25.4095 28.0027 22.5576 25.9547C21.9163 26.5098 21.2751 27.0648 20.6435 27.6295C22.8829 30.5676 26.6728 33.3334 29.8788 33.9938ZM28.0222 12.9104C28.0222 10.3455 27.8021 7.73186 26.3091 5.02154C25.0267 7.66773 25.132 12.1447 26.3187 15.1402C26.8738 14.7957 27.4384 14.4607 28.0031 14.1258C28.0126 13.7238 28.0222 13.3219 28.0222 12.9104V12.9104ZM27.2183 37.9463C25.3234 33.7832 22.2035 31.3715 18.9974 29.1225C18.3179 29.7637 17.6384 30.4049 16.9685 31.0557C19.4663 34.2521 23.6581 37.2285 27.2183 37.9463V37.9463ZM24.5865 42.2721C22.3662 37.573 18.8634 35.0752 15.3511 32.6635C14.7195 33.3047 14.0878 33.9555 13.4753 34.6063C16.0689 38.2143 20.7488 41.6404 24.5865 42.2721V42.2721ZM24.4142 16.3461C24.2706 12.8146 23.974 9.25832 21.7154 5.73932C20.3947 9.0248 20.7775 14.2215 22.2704 17.7625C22.9787 17.284 23.6964 16.8055 24.4142 16.3461ZM22.2035 46.5404C19.6673 41.6596 15.6287 39.1234 11.6187 36.6447C10.987 37.3529 10.365 38.0707 9.76205 38.798C12.6714 42.4443 17.8968 45.8992 22.2035 46.5404V46.5404ZM19.9544 19.399C19.6386 15.5326 19.3419 11.6279 16.691 7.87254C15.4277 11.4939 16.2507 17.2553 18.2126 20.6719C18.7869 20.2412 19.3706 19.8201 19.9544 19.399V19.399ZM16.2124 47.2773C13.7624 44.1287 11.2742 42.674 8.19252 40.7313C7.53217 41.5734 6.89096 42.4156 6.27846 43.2674C7.65658 44.9422 9.44623 45.9662 11.3794 47.2773H16.2124ZM15.6669 22.6625C14.7482 18.6334 13.7624 14.5852 10.4415 11.0824C9.68549 15.0541 11.2359 20.8059 13.6667 24.3086C14.3175 23.7535 14.9874 23.1984 15.6669 22.6625V22.6625ZM11.657 26.06C10.3076 22.0691 8.8433 18.0592 4.97689 14.6904C4.51752 18.7195 6.73783 24.4426 9.67592 27.8975C10.3171 27.2754 10.987 26.6629 11.657 26.06ZM7.16849 30.4049C6.12533 26.2801 4.95775 22.1648 1.72299 18.5855V25.3422C2.44076 28.0697 3.63705 30.7207 5.0726 32.7018C5.74252 31.9361 6.44115 31.1705 7.16849 30.4049V30.4049ZM3.30209 34.8455C2.83314 33.3525 2.34506 31.85 1.72299 30.3857V36.9701C2.22064 36.2619 2.74701 35.5537 3.30209 34.8455Z" fill="#0D0D0D"/>
</svg>
