<svg width="66" height="66" viewBox="0 0 66 66" fill="none" xmlns="http://www.w3.org/2000/svg">
<path d="M11 49.5H55C56.5125 49.5 57.75 48.2625 57.75 46.75C57.75 45.2375 56.5125 44 55 44H11C9.4875 44 8.25 45.2375 8.25 46.75C8.25 48.2625 9.4875 49.5 11 49.5ZM11 35.75H55C56.5125 35.75 57.75 34.5125 57.75 33C57.75 31.4875 56.5125 30.25 55 30.25H11C9.4875 30.25 8.25 31.4875 8.25 33C8.25 34.5125 9.4875 35.75 11 35.75ZM8.25 19.25C8.25 20.7625 9.4875 22 11 22H55C56.5125 22 57.75 20.7625 57.75 19.25C57.75 17.7375 56.5125 16.5 55 16.5H11C9.4875 16.5 8.25 17.7375 8.25 19.25Z" fill="#E5E5E5"/>
</svg>
