<svg width="81" height="79" viewBox="0 0 81 79" fill="none" xmlns="http://www.w3.org/2000/svg">
<path d="M51.6373 49.375C51.6373 50.4226 51.2106 51.4273 50.4511 52.1681C49.6916 52.9089 48.6614 53.325 47.5873 53.325C46.5132 53.325 45.483 52.9089 44.7235 52.1681C43.964 51.4273 43.5373 50.4226 43.5373 49.375C43.5373 48.3274 43.964 47.3227 44.7235 46.5819C45.483 45.8412 46.5132 45.425 47.5873 45.425C48.6614 45.425 49.6916 45.8412 50.4511 46.5819C51.2106 47.3227 51.6373 48.3274 51.6373 49.375V49.375ZM37.4623 49.375C37.4623 50.4226 37.0356 51.4273 36.2761 52.1681C35.5166 52.9089 34.4864 53.325 33.4123 53.325C32.3382 53.325 31.308 52.9089 30.5485 52.1681C29.789 51.4273 29.3623 50.4226 29.3623 49.375C29.3623 48.3274 29.789 47.3227 30.5485 46.5819C31.308 45.8412 32.3382 45.425 33.4123 45.425C34.4864 45.425 35.5166 45.8412 36.2761 46.5819C37.0356 47.3227 37.4623 48.3274 37.4623 49.375V49.375Z" fill="#E5E5E5"/>
<path fill-rule="evenodd" clip-rule="evenodd" d="M40.5002 31.6C44.2596 31.6 47.8651 30.1435 50.5234 27.5508C53.1818 24.9581 54.6752 21.4416 54.6752 17.775C54.6752 14.1084 53.1818 10.592 50.5234 7.99926C47.8651 5.40657 44.2596 3.95001 40.5002 3.95001C36.7408 3.95001 33.1353 5.40657 30.477 7.99926C27.8186 10.592 26.3252 14.1084 26.3252 17.775C26.3252 21.4416 27.8186 24.9581 30.477 27.5508C33.1353 30.1435 36.7408 31.6 40.5002 31.6V31.6ZM40.5002 11.85C42.1114 11.85 43.6566 12.4743 44.7959 13.5854C45.9352 14.6966 46.5752 16.2036 46.5752 17.775C46.5752 19.3464 45.9352 20.8535 44.7959 21.9646C43.6566 23.0758 42.1114 23.7 40.5002 23.7C38.889 23.7 37.3438 23.0758 36.2045 21.9646C35.0652 20.8535 34.4252 19.3464 34.4252 17.775C34.4252 16.2036 35.0652 14.6966 36.2045 13.5854C37.3438 12.4743 38.889 11.85 40.5002 11.85Z" fill="#E5E5E5"/>
<path d="M40.5004 55.3C42.6486 55.3 44.7089 56.1323 46.228 57.6139C47.747 59.0954 48.6004 61.1048 48.6004 63.2V69.125C48.6004 71.2202 47.747 73.2296 46.228 74.7112C44.7089 76.1927 42.6486 77.025 40.5004 77.025C38.3521 77.025 36.2919 76.1927 34.7728 74.7112C33.2538 73.2296 32.4004 71.2202 32.4004 69.125V63.2C32.4004 61.1048 33.2538 59.0954 34.7728 57.6139C36.2919 56.1323 38.3521 55.3 40.5004 55.3V55.3Z" fill="#E5E5E5"/>
<path fill-rule="evenodd" clip-rule="evenodd" d="M60.75 43.45C60.75 38.212 58.6165 33.1885 54.8189 29.4847C51.0213 25.7808 45.8706 23.7 40.5 23.7C35.1294 23.7 29.9787 25.7808 26.1811 29.4847C22.3835 33.1885 20.25 38.212 20.25 43.45V53.325C20.25 55.944 21.3167 58.4558 23.2155 60.3077C25.1143 62.1596 27.6897 63.2 30.375 63.2H50.625C53.3103 63.2 55.8857 62.1596 57.7845 60.3077C59.6833 58.4558 60.75 55.944 60.75 53.325V43.45ZM28.35 43.45C28.35 40.3072 29.6301 37.2931 31.9087 35.0708C34.1872 32.8485 37.2776 31.6 40.5 31.6C43.7224 31.6 46.8128 32.8485 49.0914 35.0708C51.3699 37.2931 52.65 40.3072 52.65 43.45V53.325C52.65 53.8488 52.4367 54.3512 52.0569 54.7215C51.6771 55.0919 51.1621 55.3 50.625 55.3H30.375C29.8379 55.3 29.3229 55.0919 28.9431 54.7215C28.5633 54.3512 28.35 53.8488 28.35 53.325V43.45Z" fill="#E5E5E5"/>
<path d="M62.7752 17.775C61.7011 17.775 60.6709 17.3588 59.9114 16.6181C59.1519 15.8773 58.7252 14.8726 58.7252 13.825C58.7252 12.7774 59.1519 11.7727 59.9114 11.0319C60.6709 10.2912 61.7011 9.875 62.7752 9.875H70.8752C71.9493 9.875 72.9795 10.2912 73.739 11.0319C74.4985 11.7727 74.9252 12.7774 74.9252 13.825C74.9252 14.8726 74.4985 15.8773 73.739 16.6181C72.9795 17.3588 71.9493 17.775 70.8752 17.775H62.7752ZM10.1252 17.775C9.05107 17.775 8.02093 17.3588 7.26141 16.6181C6.50189 15.8773 6.0752 14.8726 6.0752 13.825C6.0752 12.7774 6.50189 11.7727 7.26141 11.0319C8.02093 10.2912 9.05107 9.875 10.1252 9.875H18.2252C19.2993 9.875 20.3295 10.2912 21.089 11.0319C21.8485 11.7727 22.2752 12.7774 22.2752 13.825C22.2752 14.8726 21.8485 15.8773 21.089 16.6181C20.3295 17.3588 19.2993 17.775 18.2252 17.775H10.1252Z" fill="#E5E5E5"/>
<path d="M13.8105 15.9817L15.7383 10.2344L34.0605 13.6433L32.1287 19.3945L13.8105 15.9817ZM46.9395 13.6433L48.8714 19.3945L67.1896 15.9817L65.2618 10.2344L46.9395 13.6433Z" fill="#E5E5E5"/>
</svg>
