<svg width="81" height="79" viewBox="0 0 81 79" fill="none" xmlns="http://www.w3.org/2000/svg">
<g clip-path="url(#clip0_9552_3350)">
<path d="M21.375 52.6667C17.1 52.6667 13.5 56.1778 13.5 60.3472C13.5 64.5167 17.1 68.0278 21.375 68.0278C25.65 68.0278 29.25 64.5167 29.25 60.3472V60.1278C29.25 55.9583 25.65 52.6667 21.375 52.6667Z" fill="#E5E5E5"/>
<path d="M52.875 68.0278C57.2242 68.0278 60.75 64.5891 60.75 60.3472C60.75 56.1054 57.2242 52.6667 52.875 52.6667C48.5258 52.6667 45 56.1054 45 60.3472C45 64.5891 48.5258 68.0278 52.875 68.0278Z" fill="#E5E5E5"/>
<path d="M66.375 31.8195C69.75 29.8445 72 26.3333 72 22.3833V21.0667C72 15.3611 67.275 10.9722 61.425 10.9722H42.3C38.025 10.9722 33.975 13.6056 32.4 17.5556H11.25C7.425 17.5556 4.5 20.4083 4.5 24.1389V61.4445H9V24.1389C9 22.8222 9.9 21.9445 11.25 21.9445H35.775L36 20.1889C36.675 17.3361 39.15 15.3611 42.075 15.3611H61.2C64.8 15.3611 67.5 17.9945 67.5 21.2861V22.3833C67.5 25.675 64.8 28.3083 61.425 28.3083H54V48.0583H71.55L72 48.7167V54.8611C72 56.1778 71.1 57.0556 69.75 57.0556H65.25V61.4445H69.75C73.575 61.4445 76.5 58.5917 76.5 54.8611V47.6195L66.375 31.8195Z" fill="#E5E5E5"/>
<path d="M42.75 19.75H60.525V24.1389H42.75V19.75Z" fill="#E5E5E5"/>
<path d="M45 48.2778H49.275V28.5278H33.75V61.4444H38.025V32.9167H45V48.2778Z" fill="#E5E5E5"/>
<path d="M13.5 28.5278H29.025V43.8889H13.5V28.5278Z" fill="#E5E5E5"/>
</g>
<defs>
<clipPath id="clip0_9552_3350">
<rect width="81" height="79" fill="white"/>
</clipPath>
</defs>
</svg>
