<svg width="50" height="34" viewBox="0 0 50 34" fill="none" xmlns="http://www.w3.org/2000/svg">
<path d="M3 33.5H47C48.5125 33.5 49.75 32.2625 49.75 30.75C49.75 29.2375 48.5125 28 47 28H3C1.4875 28 0.25 29.2375 0.25 30.75C0.25 32.2625 1.4875 33.5 3 33.5ZM3 19.75H47C48.5125 19.75 49.75 18.5125 49.75 17C49.75 15.4875 48.5125 14.25 47 14.25H3C1.4875 14.25 0.25 15.4875 0.25 17C0.25 18.5125 1.4875 19.75 3 19.75ZM0.25 3.25C0.25 4.7625 1.4875 6 3 6H47C48.5125 6 49.75 4.7625 49.75 3.25C49.75 1.7375 48.5125 0.5 47 0.5H3C1.4875 0.5 0.25 1.7375 0.25 3.25Z" fill="#E5E5E5"/>
</svg>
