<svg width="16" height="19" viewBox="0 0 16 19" fill="none" xmlns="http://www.w3.org/2000/svg">
<path d="M8 9.28538C6.9 9.28538 5.95833 8.83078 5.175 7.92159C4.39167 7.0124 4 5.91943 4 4.64269C4 3.36595 4.39167 2.27298 5.175 1.36379C5.95833 0.454597 6.9 0 8 0C9.1 0 10.0417 0.454597 10.825 1.36379C11.6083 2.27298 12 3.36595 12 4.64269C12 5.91943 11.6083 7.0124 10.825 7.92159C10.0417 8.83078 9.1 9.28538 8 9.28538ZM0 18.5708V15.3209C0 14.6632 0.146 14.0585 0.438 13.5067C0.729334 12.9558 1.11667 12.5353 1.6 12.2451C2.63333 11.6454 3.68333 11.1955 4.75 10.8952C5.81667 10.5958 6.9 10.4461 8 10.4461C9.1 10.4461 10.1833 10.5958 11.25 10.8952C12.3167 11.1955 13.3667 11.6454 14.4 12.2451C14.8833 12.5353 15.2707 12.9558 15.562 13.5067C15.854 14.0585 16 14.6632 16 15.3209V18.5708H0Z" fill="#1A736A"/>
</svg>
