<svg width="33" height="30" viewBox="0 0 33 30" fill="none" xmlns="http://www.w3.org/2000/svg">
<path d="M25.4245 25.375L17.9854 18.375C17.3212 18.875 16.5573 19.2708 15.6939 19.5625C14.8304 19.8542 13.9116 20 12.9374 20C10.5241 20 8.48192 19.2137 6.81078 17.6412C5.13875 16.0679 4.30273 14.1458 4.30273 11.875C4.30273 9.60417 5.13875 7.68208 6.81078 6.10875C8.48192 4.53625 10.5241 3.75 12.9374 3.75C15.3507 3.75 17.3934 4.53625 19.0654 6.10875C20.7365 7.68208 21.5721 9.60417 21.5721 11.875C21.5721 12.7917 21.4171 13.6562 21.1072 14.4687C20.7972 15.2812 20.3765 16 19.8452 16.625L27.3175 23.6562C27.561 23.8854 27.6828 24.1667 27.6828 24.5C27.6828 24.8333 27.55 25.125 27.2843 25.375C27.0407 25.6042 26.7308 25.7188 26.3544 25.7188C25.978 25.7188 25.6681 25.6042 25.4245 25.375V25.375ZM12.9374 17.5C14.5979 17.5 16.0096 16.9533 17.1724 15.86C18.3343 14.7658 18.9153 13.4375 18.9153 11.875C18.9153 10.3125 18.3343 8.98417 17.1724 7.89C16.0096 6.79667 14.5979 6.25 12.9374 6.25C11.2769 6.25 9.86524 6.79667 8.70244 7.89C7.54052 8.98417 6.95956 10.3125 6.95956 11.875C6.95956 13.4375 7.54052 14.7658 8.70244 15.86C9.86524 16.9533 11.2769 17.5 12.9374 17.5Z" fill="#F2F2F2"/>
</svg>
