<svg width="22" height="20" viewBox="0 0 22 20" fill="none" xmlns="http://www.w3.org/2000/svg">
<path d="M2.87367 0.262215C2.23007 0.265436 1.61392 0.523369 1.15996 0.979613C0.706001 1.43586 0.451164 2.05329 0.451172 2.6969C0.452463 3.26245 0.650597 3.8099 1.01156 4.24528C1.37252 4.68065 1.87378 4.97679 2.4293 5.08284V14.9125C1.87299 15.0187 1.37112 15.3156 1.01007 15.7519C0.649013 16.1882 0.451375 16.7368 0.451172 17.3032C0.451669 17.9485 0.708399 18.5673 1.16494 19.0235C1.62148 19.4797 2.24047 19.736 2.88586 19.736C3.53093 19.7355 4.14944 19.479 4.60557 19.0229C5.0617 18.5667 5.31818 17.9482 5.31867 17.3032C5.31857 16.7371 5.12127 16.1888 4.76068 15.7525C4.4001 15.3162 3.89876 15.0192 3.34289 14.9125V10.4547H10.5405V14.9125C9.98424 15.0187 9.48237 15.3156 9.12132 15.7519C8.76026 16.1882 8.56263 16.7368 8.56242 17.3032C8.56267 17.623 8.62592 17.9396 8.74856 18.2349C8.8712 18.5303 9.05083 18.7986 9.27718 19.0245C9.50354 19.2504 9.77219 19.4296 10.0678 19.5516C10.3634 19.6737 10.6801 19.7363 10.9999 19.736C11.645 19.7355 12.2635 19.479 12.7196 19.0229C13.1758 18.5667 13.4322 17.9482 13.4327 17.3032C13.4325 16.7368 13.2349 16.1882 12.8738 15.7519C12.5128 15.3156 12.0109 15.0187 11.4546 14.9125V10.4547H19.5687V5.08284C20.1242 4.97679 20.6255 4.68065 20.9864 4.24528C21.3474 3.8099 21.5455 3.26245 21.5468 2.6969C21.5468 2.05151 21.2905 1.43252 20.8344 0.975981C20.3782 0.519442 19.7594 0.262712 19.114 0.262215C19.1109 0.262209 19.1077 0.262209 19.1046 0.262215C18.4608 0.265189 17.8445 0.523013 17.3903 0.979284C16.9361 1.43555 16.6812 2.05313 16.6812 2.6969C16.6825 3.26245 16.8806 3.8099 17.2416 4.24528C17.6025 4.68065 18.1038 4.97679 18.6593 5.08284V9.54065H11.4546V5.08284C12.0101 4.97679 12.5114 4.68065 12.8724 4.24528C13.2333 3.8099 13.4314 3.26245 13.4327 2.6969C13.4327 2.05151 13.1765 1.43252 12.7203 0.975981C12.2641 0.519442 11.6453 0.262712 10.9999 0.262215C10.9968 0.262209 10.9937 0.262209 10.9905 0.262215C10.346 0.263952 9.72838 0.52123 9.2732 0.977634C8.81803 1.43404 8.56242 2.05232 8.56242 2.6969C8.56371 3.26245 8.76185 3.8099 9.12281 4.24528C9.48377 4.68065 9.98503 4.97679 10.5405 5.08284V9.54065H3.34289V5.08284C3.89797 4.97631 4.3987 4.67996 4.75919 4.24463C5.11968 3.80931 5.31749 3.26212 5.31867 2.6969C5.31867 2.05151 5.06242 1.43252 4.60623 0.975981C4.15004 0.519442 3.53125 0.262712 2.88586 0.262215C2.8818 0.262204 2.87773 0.262204 2.87367 0.262215Z" fill="#1A736A"/>
</svg>
