<svg width="24" height="24" viewBox="0 0 24 24" fill="none" xmlns="http://www.w3.org/2000/svg">
<path d="M9.9 0H8.55L7.65 3.45L6.75 0H5.25C5.55 0.9 5.85 1.65 6.15 2.55C6.6 3.75 6.9 4.8 6.9 5.4V9H8.25V5.4L9.9 0ZM13.5 6.75V4.5C13.5 3.75 13.35 3.3 13.05 2.85C12.75 2.4 12.3 2.25 11.7 2.25C11.1 2.25 10.65 2.55 10.35 3C10.05 3.3 9.9 3.75 9.9 4.5V6.9C9.9 7.65 10.05 8.1 10.35 8.4C10.65 8.85 11.1 9 11.7 9C12.3 9 12.75 8.7 13.05 8.25C13.35 8.1 13.5 7.5 13.5 6.75ZM12.3 7.05C12.3 7.65 12.15 7.95 11.7 7.95C11.25 7.95 11.1 7.65 11.1 7.05V4.2C11.1 3.6 11.25 3.3 11.7 3.3C12.15 3.3 12.3 3.6 12.3 4.2V7.05V7.05ZM18 9V2.25H16.8V7.35C16.5 7.8 16.35 7.95 16.05 7.95C15.9 7.95 15.75 7.8 15.75 7.65V2.25H14.55V7.5C14.55 7.95 14.55 8.25 14.7 8.55C14.7 8.85 15 9 15.45 9C15.9 9 16.35 8.7 16.8 8.25V9H18ZM18.6 15.75C18.15 15.75 18 16.05 18 16.65V17.25H19.2V16.65C19.2 16.05 19.05 15.75 18.6 15.75ZM14.25 15.75C14.1 15.75 13.8 15.9 13.65 16.05V20.1C13.8 20.25 14.1 20.4 14.25 20.4C14.55 20.4 14.7 20.1 14.7 19.5V16.65C14.7 16.05 14.55 15.75 14.25 15.75V15.75Z" fill="#E5E5E5"/>
<path d="M21.5996 12.45C21.2996 11.4 20.3996 10.5 19.4996 10.5C17.0996 10.2 14.5496 10.2 11.9996 10.2C9.44961 10.2 7.04961 10.2 4.49961 10.5C3.59961 10.5 2.69961 11.4 2.39961 12.45C2.09961 13.95 2.09961 15.6 2.09961 17.1C2.09961 18.6 2.09961 20.25 2.39961 21.75C2.69961 22.8 3.44961 23.55 4.49961 23.7C7.04961 24 9.44961 24 11.9996 24C14.5496 24 16.9496 24 19.4996 23.7C20.5496 23.55 21.4496 22.8 21.5996 21.75C21.8996 20.25 21.8996 18.6 21.8996 17.1C21.8996 15.6 21.8996 13.95 21.5996 12.45ZM7.79961 13.8H6.29961V21.45H4.94961V13.8H3.59961V12.45H7.79961V13.8V13.8ZM11.3996 21.45H10.1996V20.7C9.74961 21.3 9.29961 21.45 8.84961 21.45C8.39961 21.45 8.24961 21.3 8.09961 21C8.09961 20.85 7.94961 20.55 7.94961 19.95V14.7H9.14961V19.95C9.14961 20.1 9.29961 20.25 9.44961 20.25C9.74961 20.25 9.89961 20.1 10.1996 19.65V14.7H11.3996V21.45ZM15.8996 19.35C15.8996 19.95 15.8996 20.4 15.7496 20.7C15.5996 21.15 15.2996 21.45 14.8496 21.45C14.3996 21.45 13.9496 21.15 13.6496 20.7V21.3H12.4496V12.45H13.6496V15.3C14.0996 14.85 14.3996 14.55 14.8496 14.55C15.2996 14.55 15.5996 14.85 15.7496 15.3C15.8996 15.6 15.8996 16.05 15.8996 16.65V19.35V19.35ZM20.3996 18.3H17.9996V19.5C17.9996 20.1 18.1496 20.4 18.5996 20.4C18.8996 20.4 19.0496 20.25 19.1996 19.95V19.2H20.3996V20.1C20.3996 20.4 20.2496 20.55 20.0996 20.85C19.7996 21.3 19.3496 21.6 18.5996 21.6C17.9996 21.6 17.5496 21.3 17.0996 20.85C16.7996 20.55 16.6496 19.95 16.6496 19.35V17.1C16.6496 16.35 16.7996 15.9 16.9496 15.6C17.2496 15.15 17.6996 14.85 18.4496 14.85C19.0496 14.85 19.4996 15.15 19.7996 15.6C20.0996 15.9 20.0996 16.5 20.0996 17.1V18.3H20.3996Z" fill="#E5E5E5"/>
</svg>
